<svg xmlns="http://www.w3.org/2000/svg" viewBox="0 0 512 256" fill="#c0d8f0">
  <path d="M256 8C256 8 248 40 220 56C192 72 160 64 144 80C128 96 136 120 120 128C104 136 72 120 56 144C40 168 56 200 40 216L80 216C88 200 112 192 128 200C144 208 144 224 152 232L176 232C184 216 200 200 224 192C240 184 248 176 256 168C264 176 272 184 288 192C312 200 328 216 336 232L360 232C368 224 368 208 384 200C400 192 424 200 432 216L472 216C456 200 472 168 456 144C440 120 408 136 392 128C376 120 384 96 368 80C352 64 320 72 292 56C264 40 256 8 256 8Z"/>
</svg>
