<svg xmlns="http://www.w3.org/2000/svg" viewBox="0 0 200 200">
  <defs>
    <radialGradient id="pumpGlow" cx="50%" cy="50%" r="50%">
      <stop offset="0%" stop-color="#ff8c00" stop-opacity="0.6"/>
      <stop offset="60%" stop-color="#ff6600" stop-opacity="0.2"/>
      <stop offset="100%" stop-color="transparent" stop-opacity="0"/>
    </radialGradient>
  </defs>
  <circle cx="100" cy="100" r="90" fill="url(#pumpGlow)"/>
  <ellipse cx="100" cy="105" rx="55" ry="50" fill="#e06800"/>
  <ellipse cx="75" cy="105" rx="30" ry="48" fill="#d06000"/>
  <ellipse cx="125" cy="105" rx="30" ry="48" fill="#d06000"/>
  <path d="M90 60 L100 40 L110 60" fill="#4a7a20"/>
  <path d="M100 45 Q115 50 105 60" fill="none" stroke="#3a6a15" stroke-width="3" stroke-linecap="round"/>
  <!-- Eyes -->
  <polygon points="72,88 85,78 85,98" fill="#ff9500" opacity="0.9"/>
  <polygon points="128,88 115,78 115,98" fill="#ff9500" opacity="0.9"/>
  <!-- Mouth -->
  <path d="M75 115 L80 110 L90 120 L100 108 L110 120 L120 110 L125 115 L120 122 L110 128 L100 118 L90 128 L80 122 Z" fill="#ff9500" opacity="0.9"/>
</svg>
